<svg id="Capa_1" enable-background="new 0 0 497 497" height="512" viewBox="0 0 497 497" width="512" xmlns="http://www.w3.org/2000/svg"><g><path d="m467 0-45 497h30c24.853 0 45-20.147 45-45v-444.5c0-4.142-3.358-7.5-7.5-7.5z" fill="#cbc9c2"/><path d="m90 7.5v52.5l-45 437h377c24.853 0 45-20.147 45-45v-452h-369.5c-4.142 0-7.5 3.358-7.5 7.5z" fill="#f0ede5"/><path d="m437 227v120h-30l-30-60 30-60z" fill="#0f4c81"/><path d="m308.5 227h98.5v120h-98.5z" fill="#2d6aab"/><path d="m90 60v391.258c0 24.674-19.553 45.319-44.224 45.735-25.205.425-45.776-19.885-45.776-44.993v-384.5c0-4.142 3.358-7.5 7.5-7.5h22.5l15 47 15-47z" fill="#cbc9c2"/><path d="m60 60v392c0 8.27-6.73 15-15 15s-15-6.73-15-15v-392z" fill="#adaca7"/><path d="m437 167v30h-30l-30-60z" fill="#ff5a47"/><path d="m407 122v75h-257v-30z" fill="#fe8047"/><path d="m437 90v77h-30l-30-38.5 30-38.5z" fill="#e8412e"/><path d="m150 90h257v77h-257z" fill="#ff5a47"/><g fill="#adaca7"><path d="m278.5 294.5h-128.5c-4.143 0-7.5-3.358-7.5-7.5s3.357-7.5 7.5-7.5h128.5c4.143 0 7.5 3.358 7.5 7.5s-3.357 7.5-7.5 7.5z"/><path d="m278.5 324.5h-128.5c-4.143 0-7.5-3.358-7.5-7.5s3.357-7.5 7.5-7.5h128.5c4.143 0 7.5 3.358 7.5 7.5s-3.357 7.5-7.5 7.5z"/><path d="m278.5 264.5h-128.5c-4.143 0-7.5-3.358-7.5-7.5s3.357-7.5 7.5-7.5h128.5c4.143 0 7.5 3.358 7.5 7.5s-3.357 7.5-7.5 7.5z"/><path d="m278.5 234.5h-128.5c-4.143 0-7.5-3.358-7.5-7.5s3.357-7.5 7.5-7.5h128.5c4.143 0 7.5 3.358 7.5 7.5s-3.357 7.5-7.5 7.5z"/><path d="m437 67.5h-287c-4.143 0-7.5-3.358-7.5-7.5s3.357-7.5 7.5-7.5h287c4.143 0 7.5 3.358 7.5 7.5s-3.357 7.5-7.5 7.5z"/><path d="m437 384.5h-128.5c-4.143 0-7.5-3.358-7.5-7.5s3.357-7.5 7.5-7.5h128.5c4.143 0 7.5 3.358 7.5 7.5s-3.357 7.5-7.5 7.5z"/><path d="m437 414.5h-128.5c-4.143 0-7.5-3.358-7.5-7.5s3.357-7.5 7.5-7.5h128.5c4.143 0 7.5 3.358 7.5 7.5s-3.357 7.5-7.5 7.5z"/><path d="m437 444.5h-128.5c-4.143 0-7.5-3.358-7.5-7.5s3.357-7.5 7.5-7.5h128.5c4.143 0 7.5 3.358 7.5 7.5s-3.357 7.5-7.5 7.5z"/><path d="m278.5 384.5h-128.5c-4.143 0-7.5-3.358-7.5-7.5s3.357-7.5 7.5-7.5h128.5c4.143 0 7.5 3.358 7.5 7.5s-3.357 7.5-7.5 7.5z"/><path d="m278.5 354.5h-128.5c-4.143 0-7.5-3.358-7.5-7.5s3.357-7.5 7.5-7.5h128.5c4.143 0 7.5 3.358 7.5 7.5s-3.357 7.5-7.5 7.5z"/><path d="m278.5 414.5h-128.5c-4.143 0-7.5-3.358-7.5-7.5s3.357-7.5 7.5-7.5h128.5c4.143 0 7.5 3.358 7.5 7.5s-3.357 7.5-7.5 7.5z"/><path d="m278.5 444.5h-128.5c-4.143 0-7.5-3.358-7.5-7.5s3.357-7.5 7.5-7.5h128.5c4.143 0 7.5 3.358 7.5 7.5s-3.357 7.5-7.5 7.5z"/></g></g></svg>